Results
version=1
nRows=30
nColumns=21
inDegrees=yes
endheader
time	Thorax_pitch	Thorax_roll	Thorax_yaw	Thorax_Tx	Thorax_Ty	Thorax_Tz	L_shoulder_flex-ext	L_shoulder_adb-add	L_shoulder_LAR	L_elbow_flex-ext	L_forearm_pron-sup	L_wrist_flex-ext	L_MCP_flex-ext	R_shoulder_flex-ext	R_shoulder_adb-add	R_shoulder_LAR	R_elbow_flex-ext	R_forearm_pron-sup	R_wrist_flex-ext	R_MCP_flex-ext
      0.00400000	      0.00000000	      0.00000000	     16.88901387	      0.00968184	      0.15767511	      0.10681477	      0.00000000	      0.00000000	      0.00000000	    -64.83949333	     49.81371653	      0.00000000	      0.00000000	    -16.05792785	     11.16104207	      0.70879344	    -36.14271660	    123.30017504	    -24.59993108	     -0.42603465
      0.00410000	      0.00000000	      0.00000000	     16.98238221	      0.00977180	      0.15768663	      0.10678841	      0.00000000	      0.00000000	      0.00000000	    -64.89685599	     49.81728522	      0.00000000	      0.00000000	    -16.01159591	     11.23376405	      0.61888751	    -36.37065479	    122.80705364	    -24.19684664	     -0.39636911
      0.00420000	      0.00000000	      0.00000000	     16.77700589	      0.01001596	      0.15768303	      0.10675951	      0.00000000	      0.00000000	      0.00000000	    -65.09208956	     49.83980313	      0.00000000	      0.00000000	    -16.20566072	     11.20643996	      0.56399596	    -36.06703716	    125.12438105	    -24.55115712	     -1.13871869
      0.00430000	      0.00000000	      0.00000000	     16.88746202	      0.01007644	      0.15766429	      0.10676410	      0.00000000	      0.00000000	      0.00000000	    -65.14648727	     49.84366177	      0.00000000	      0.00000000	    -16.16799889	     11.29770754	      0.46380923	    -36.37589817	    124.50641513	    -24.18555679	     -1.07113590
      0.00440000	      0.00000000	      0.00000000	     16.94783093	      0.01018551	      0.15766582	      0.10674225	      0.00000000	      0.00000000	      0.00000000	    -65.19347950	     49.84634313	      0.00000000	      0.00000000	    -16.13952858	     11.34678110	      0.36244441	    -36.56134231	    124.07253076	    -23.85898207	     -0.98367040
      0.00450000	      0.00000000	      0.00000000	     16.72889079	      0.01041406	      0.15766852	      0.10679104	      0.00000000	      0.00000000	      0.00000000	    -65.22468408	     49.84898908	      0.00000000	      0.00000000	    -16.27721287	     11.16996780	      0.32871467	    -36.16760008	    124.54402346	    -24.42901314	     -0.43672003
      0.00460000	      0.00000000	      0.00000000	     16.81881766	      0.01051180	      0.15766896	      0.10677288	      0.00000000	      0.00000000	      0.00000000	    -65.27181533	     49.85147660	      0.00000000	      0.00000000	    -16.23272218	     11.21755640	      0.24706655	    -36.35939469	    124.11986124	    -24.03215105	     -0.38528847
      0.00470000	      0.00000000	      0.00000000	     16.66911210	      0.01070299	      0.15766389	      0.10678538	      0.00000000	      0.00000000	      0.00000000	    -65.31225488	     49.85448165	      0.00000000	      0.00000000	    -16.39010457	     11.14602544	      0.34342411	    -36.13741951	    124.48612942	    -24.33025463	     -0.02321435
      0.00480000	      0.00000000	      0.00000000	     16.76547278	      0.01079294	      0.15766733	      0.10676230	      0.00000000	      0.00000000	      0.00000000	    -65.35900648	     49.85714559	      0.00000000	      0.00000000	    -16.33931661	     11.21125211	      0.26275658	    -36.35854509	    124.00700944	    -23.92801463	      0.01266350
      0.00490000	      0.00000000	      0.00000000	     16.56909268	      0.01102389	      0.15764318	      0.10677455	      0.00000000	      0.00000000	      0.00000000	    -65.38542569	     49.85860845	      0.00000000	      0.00000000	    -16.51300739	     11.17820216	      0.23650663	    -36.25485416	    124.20669547	    -24.20890180	      0.34615565
      0.00500000	      0.00000000	      0.00000000	     16.67843138	      0.01110046	      0.15765141	      0.10675202	      0.00000000	      0.00000000	      0.00000000	    -65.42988665	     49.86106841	      0.00000000	      0.00000000	    -16.45341495	     11.23113274	      0.16389994	    -36.45260082	    123.75382562	    -23.81290257	      0.37550519
      0.00510000	      0.00000000	      0.00000000	     16.50520707	      0.01132037	      0.15763797	      0.10677067	      0.00000000	      0.00000000	      0.00000000	    -65.45285288	     49.86223798	      0.00000000	      0.00000000	    -16.60649143	     11.17668823	      0.17823357	    -36.29925581	    123.99813790	    -24.12988941	      0.72399557
      0.00520000	      0.00000000	      0.00000000	     16.61448530	      0.01140013	      0.15764570	      0.10675013	      0.00000000	      0.00000000	      0.00000000	    -65.49466231	     49.86441907	      0.00000000	      0.00000000	    -16.54673442	     11.21560510	      0.11008485	    -36.46964646	    123.58794654	    -23.74125048	      0.74702113
      0.00530000	      0.00000000	      0.00000000	     16.46342009	      0.01160666	      0.15763632	      0.10676135	      0.00000000	      0.00000000	      0.00000000	    -65.51977336	     49.86586889	      0.00000000	      0.00000000	    -16.69286854	     11.16527935	      0.19909773	    -36.28828603	    123.86763850	    -24.07968300	      1.10096433
      0.00540000	      0.00000000	      0.00000000	     16.57401836	      0.01168313	      0.15764593	      0.10674040	      0.00000000	      0.00000000	      0.00000000	    -65.56084563	     49.86811059	      0.00000000	      0.00000000	    -16.63373788	     11.20969339	      0.12971311	    -36.47240153	    123.42984015	    -23.68777683	      1.11183474
      0.00550000	      0.00000000	      0.00000000	     16.39780270	      0.01189908	      0.15763154	      0.10675773	      0.00000000	      0.00000000	      0.00000000	    -65.58328737	     49.86934062	      0.00000000	      0.00000000	    -16.80359811	     11.15114719	      0.18499488	    -36.30086612	    123.67163506	    -24.00944418	      1.44274471
      0.00560000	      0.00000000	      0.00000000	     16.51007201	      0.01197632	      0.15764012	      0.10673672	      0.00000000	      0.00000000	      0.00000000	    -65.62249242	     49.87144628	      0.00000000	      0.00000000	    -16.74256405	     11.19163263	      0.11856363	    -36.47511881	    123.24900659	    -23.62427825	      1.44806742
      0.00570000	      0.00000000	      0.00000000	     16.35055612	      0.01218471	      0.15762908	      0.10674963	      0.00000000	      0.00000000	      0.00000000	    -65.64615966	     49.87290441	      0.00000000	      0.00000000	    -16.90403813	     11.13584434	      0.22928171	    -36.28239032	    123.51236599	    -23.97710630	      1.79085816
      0.00580000	      0.00000000	      0.00000000	     16.46348087	      0.01226089	      0.15763903	      0.10672892	      0.00000000	      0.00000000	      0.00000000	    -65.68432929	     49.87500340	      0.00000000	      0.00000000	    -16.84295587	     11.17807733	      0.16102634	    -36.46293317	    123.07588266	    -23.59106231	      1.78667294
      0.00590000	      0.00000000	      0.00000000	     16.28998077	      0.01247488	      0.15762469	      0.10674441	      0.00000000	      0.00000000	      0.00000000	    -65.70683956	     49.87639739	      0.00000000	      0.00000000	    -17.01721363	     11.11854576	      0.25396850	    -36.27608792	    123.31383720	    -23.93624784	      2.11717780
      0.00600000	      0.00000000	      0.00000000	     16.40478427	      0.01255030	      0.15763448	      0.10672359	      0.00000000	      0.00000000	      0.00000000	    -65.74359549	     49.87842441	      0.00000000	      0.00000000	    -16.95440519	     11.15999563	      0.18640031	    -36.45478412	    122.87857873	    -23.55375133	      2.10669036
      0.00610000	      0.00000000	      0.00000000	     16.23775004	      0.01276138	      0.15762127	      0.10673766	      0.00000000	      0.00000000	      0.00000000	    -65.76643998	     49.87994662	      0.00000000	      0.00000000	    -17.12581917	     11.10028547	      0.30484424	    -36.25742455	    123.11724862	    -23.91651065	      2.44360704
      0.00620000	      0.00000000	      0.00000000	     16.35317427	      0.01283683	      0.15763189	      0.10671734	      0.00000000	      0.00000000	      0.00000000	    -65.80198321	     49.88192628	      0.00000000	      0.00000000	    -17.06229527	     11.14159132	      0.23605963	    -36.43768437	    122.67701940	    -23.53513993	      2.42570663
      0.00630000	      0.00000000	      0.00000000	     16.18240980	      0.01304885	      0.15761731	      0.10673150	      0.00000000	      0.00000000	      0.00000000	    -65.82475080	     49.88351701	      0.00000000	      0.00000000	    -17.23878493	     11.08053943	      0.35826146	    -36.23874506	    122.90220080	    -23.90131638	      2.76097330
      0.00640000	      0.00000000	      0.00000000	     16.29892342	      0.01312420	      0.15762845	      0.10671160	      0.00000000	      0.00000000	      0.00000000	    -65.85905653	     49.88544159	      0.00000000	      0.00000000	    -17.17407799	     11.12156184	      0.28864578	    -36.41976334	    122.45883369	    -23.52183039	      2.73648597
      0.00650000	      0.00000000	      0.00000000	     16.12893832	      0.01333512	      0.15761359	      0.10672518	      0.00000000	      0.00000000	      0.00000000	    -65.88206098	     49.88714479	      0.00000000	      0.00000000	    -17.35178347	     11.05952497	      0.42288176	    -36.21563780	    122.67532712	    -23.89666173	      3.07526657
      0.00660000	      0.00000000	      0.00000000	     16.24611300	      0.01341110	      0.15762535	      0.10670600	      0.00000000	      0.00000000	      0.00000000	    -65.91515738	     49.88901347	      0.00000000	      0.00000000	    -17.28617450	     11.10007118	      0.35197075	    -36.39758623	    122.22867699	    -23.51875204	      3.04424511
      0.00670000	      0.00000000	      0.00000000	     16.07584703	      0.01362079	      0.15761010	      0.10671903	      0.00000000	      0.00000000	      0.00000000	    -65.93853820	     49.89084409	      0.00000000	      0.00000000	    -17.46608244	     11.03686254	      0.49633894	    -36.18898531	    122.43454754	    -23.89955701	      3.38607818
      0.00680000	      0.00000000	      0.00000000	     16.19355529	      0.01369788	      0.15762229	      0.10670073	      0.00000000	      0.00000000	      0.00000000	    -65.97043238	     49.89265419	      0.00000000	      0.00000000	    -17.39973927	     11.07681746	      0.42394017	    -36.37186388	    121.98502220	    -23.52338937	      3.34881113
      0.00690000	      0.00000000	      0.00000000	     16.02358195	      0.01390566	      0.15760735	      0.10671329	      0.00000000	      0.00000000	      0.00000000	    -65.99438935	     49.89463579	      0.00000000	      0.00000000	    -17.58117220	     11.01200052	      0.57965531	    -36.15750943	    122.18105514	    -23.90971647	      3.69476562
